<svg xmlns="http://www.w3.org/2000/svg" width="650" height="437" viewBox="0 0 650 437">
  <defs>
    <style>
      .cls-1 {
        fill: #fff;
      }

      .cls-2 {
        fill: #58499a;
      }
    </style>
  </defs>
  <g id="Group_2569" data-name="Group 2569" transform="translate(-18479 1533)">
    <rect id="Rectangle_209" data-name="Rectangle 209" class="cls-1" width="650" height="437" transform="translate(18479 -1533)"/>
    <g id="license" transform="translate(18615.035 -1499)">
      <g id="Group_2568" data-name="Group 2568" transform="translate(16.964)">
        <g id="Group_2567" data-name="Group 2567">
          <path id="Path_3295" data-name="Path 3295" class="cls-2" d="M307.1,176.62a6.147,6.147,0,0,0,6.149,6.149H374.74a6.15,6.15,0,0,0,0-12.3H313.247a6.146,6.146,0,0,0-6.147,6.152Z" transform="translate(-98.028 -47.63)"/>
          <path id="Path_3296" data-name="Path 3296" class="cls-2" d="M358.3,227.82a6.147,6.147,0,0,0,6.149,6.149h36.9a6.15,6.15,0,0,0,0-12.3h-36.9a6.146,6.146,0,0,0-6.147,6.152Z" transform="translate(-112.333 -61.935)"/>
          <path id="Path_3297" data-name="Path 3297" class="cls-2" d="M342.611,131.569a6.15,6.15,0,0,0,0-12.3h-12.3a6.15,6.15,0,0,0,0,12.3Z" transform="translate(-102.796 -33.325)"/>
          <path id="Path_3298" data-name="Path 3298" class="cls-2" d="M244.98,221.67a6.15,6.15,0,0,0,0,12.3h61.491a6.15,6.15,0,1,0,0-12.3Z" transform="translate(-78.954 -61.935)"/>
          <path id="Path_3299" data-name="Path 3299" class="cls-2" d="M223.273,341.393H106.44a18.47,18.47,0,0,1-18.447-18.447V40.086a6.147,6.147,0,0,0-6.149-6.149A30.781,30.781,0,0,0,51.1,64.683a6.15,6.15,0,0,0,12.3,0,18.483,18.483,0,0,1,12.3-17.4V322.945a30.781,30.781,0,0,0,30.746,30.746H223.273a6.15,6.15,0,1,0,0-12.3Z" transform="translate(-26.501 -9.482)"/>
          <path id="Path_3300" data-name="Path 3300" class="cls-2" d="M159.647,182.769h86.088a6.15,6.15,0,1,0,0-12.3H159.647a6.15,6.15,0,1,0,0,12.3Z" transform="translate(-55.112 -47.63)"/>
          <path id="Path_3301" data-name="Path 3301" class="cls-2" d="M159.647,131.569h24.6a6.15,6.15,0,0,0,0-12.3h-24.6a6.15,6.15,0,0,0,0,12.3Z" transform="translate(-55.112 -33.325)"/>
          <path id="Path_3302" data-name="Path 3302" class="cls-2" d="M277.106,119.27H227.913a6.15,6.15,0,1,0,0,12.3h49.193a6.15,6.15,0,0,0,0-12.3Z" transform="translate(-74.185 -33.324)"/>
          <path id="Path_3303" data-name="Path 3303" class="cls-2" d="M305.972,0H72.306A55.407,55.407,0,0,0,16.964,55.126v.289a55.562,55.562,0,0,0,27.664,47.717A6.147,6.147,0,1,0,50.79,92.495,42.963,42.963,0,0,1,72.306,12.3H305.972a43.1,43.1,0,0,1,43.044,43.044V313.6a17.9,17.9,0,0,1-2.515,9.039,6.149,6.149,0,1,0,10.6,6.235,30.161,30.161,0,0,0,4.212-15.274V55.342A55.4,55.4,0,0,0,305.972,0Z" transform="translate(-16.964)"/>
          <path id="Path_3304" data-name="Path 3304" class="cls-2" d="M415.02,378.032a36.895,36.895,0,1,0-36.895,36.895A36.895,36.895,0,0,0,415.02,378.032Zm-36.895,24.6a24.6,24.6,0,1,1,24.6-24.6,24.6,24.6,0,0,1-24.6,24.6Z" transform="translate(-107.565 -95.314)"/>
          <path id="Path_3305" data-name="Path 3305" class="cls-2" d="M358.127,446.849a6.155,6.155,0,0,0-8.4,2.25l-13.239,22.942-2.1-3.173a6.117,6.117,0,0,0-4.76-2.748l-3.8-.228,13.461-23.3a6.152,6.152,0,1,0-10.656-6.15L310.2,468.359a6.15,6.15,0,0,0,4.962,9.211l10.656.639,5.884,8.91a6.14,6.14,0,0,0,5.129,2.761h.191a6.18,6.18,0,0,0,5.141-3.075l18.22-31.557a6.147,6.147,0,0,0-2.256-8.4Z" transform="translate(-98.666 -121.081)"/>
          <path id="Path_3306" data-name="Path 3306" class="cls-2" d="M436.325,436.839a6.152,6.152,0,1,0-10.657,6.149L438.969,466l-3.8.228a6.175,6.175,0,0,0-4.765,2.748l-2.09,3.173-13.171-22.826a6.152,6.152,0,1,0-10.656,6.15l18.152,31.44a6.18,6.18,0,0,0,5.141,3.075h.191a6.168,6.168,0,0,0,5.134-2.761l5.879-8.9,10.65-.646a6.15,6.15,0,0,0,4.963-9.211Z" transform="translate(-125.008 -121.193)"/>
          <path id="Path_3307" data-name="Path 3307" class="cls-2" d="M159.647,233.969h36.9a6.15,6.15,0,1,0,0-12.3h-36.9a6.15,6.15,0,0,0,0,12.3Z" transform="translate(-55.112 -61.935)"/>
          <path id="Path_3308" data-name="Path 3308" class="cls-2" d="M159.647,285.169h73.789a6.15,6.15,0,0,0,0-12.3H159.647a6.15,6.15,0,1,0,0,12.3Z" transform="translate(-55.112 -76.241)"/>
          <path id="Path_3309" data-name="Path 3309" class="cls-2" d="M160.207,376.012a6.147,6.147,0,0,0,10.994-5.5c-6.088-12.175-7.452-23.1-3.665-29.227,2.017-3.265,5.534-4.92,10.466-4.92,2.933,0,4.027,1.008,4.716,1.992,4.581,6.6.228,26.718-4.329,38.893a6.151,6.151,0,0,0,10.111,6.51c2.626-2.619,5.473-5.233,7.951-7.354v3.007a6.151,6.151,0,0,0,10.5,4.347,76.88,76.88,0,0,1,8.811-7.532c-.073.153-.148.3-.221.442a6.158,6.158,0,0,0,5.51,8.891h24.6a6.15,6.15,0,1,0,0-12.3H229.637c.5-2.927.375-5.9-1.107-8.3a8.553,8.553,0,0,0-7.483-4c-3.8,0-8.27,2.312-12.353,5.177a7.1,7.1,0,0,0-4.311-5.884c-1.642-.677-3.757-1.562-8.891,1.519,2.023-10.6,2.614-22.807-2.663-30.419-2.306-3.327-6.746-7.287-14.826-7.287-9.211,0-16.646,3.818-20.931,10.755C150.941,344.75,152.078,359.76,160.207,376.012Z" transform="translate(-55.021 -90.546)"/>
          <path id="Path_3310" data-name="Path 3310" class="cls-2" d="M363.821,279.02a6.147,6.147,0,0,0-6.149-6.149H296.181a6.15,6.15,0,1,0,0,12.3h61.491A6.147,6.147,0,0,0,363.821,279.02Z" transform="translate(-93.26 -76.241)"/>
        </g>
      </g>
    </g>
  </g>
</svg>
